<svg width="32" height="32" viewBox="0 0 32 32" fill="none" xmlns="http://www.w3.org/2000/svg">
<path d="M25.767 12.6243C25.767 12.6243 25.043 21.6043 24.623 25.3869C24.423 27.1936 23.307 28.2523 21.479 28.2856C18.0004 28.3483 14.5177 28.3523 11.0404 28.2789C9.2817 28.2429 8.18437 27.1709 7.98837 25.3963C7.5657 21.5803 6.8457 12.6243 6.8457 12.6243" stroke="#ED1C24" stroke-width="1.5" stroke-linecap="round" stroke-linejoin="round"/>
<path d="M27.6107 8.31962H5" stroke="#ED1C24" stroke-width="1.5" stroke-linecap="round" stroke-linejoin="round"/>
<path d="M23.2548 8.3196C22.2081 8.3196 21.3068 7.5796 21.1014 6.55427L20.7774 4.93294C20.5774 4.18494 19.9001 3.6676 19.1281 3.6676H13.4841C12.7121 3.6676 12.0348 4.18494 11.8348 4.93294L11.5108 6.55427C11.3054 7.5796 10.4041 8.3196 9.35742 8.3196" stroke="#ED1C24" stroke-width="1.5" stroke-linecap="round" stroke-linejoin="round"/>
</svg>
