<svg width="20" height="20" viewBox="0 0 20 20" fill="none" xmlns="http://www.w3.org/2000/svg">
<g clip-path="url(#clip0)">
<path d="M10.5877 2.63618C10.4336 2.58017 10.2564 2.61135 10.1387 2.71516L2.72452 9.23692C2.56646 9.38084 2.57102 9.61022 2.73463 9.74925C2.89427 9.88485 3.14732 9.88485 3.30691 9.74925L10.0184 3.8456L10.0184 19.6377C10.0184 19.8378 10.2029 20 10.4303 20C10.6578 20 10.8423 19.8378 10.8423 19.6377L10.8423 3.8456L17.5529 9.7485C17.7109 9.89242 17.9717 9.89643 18.1353 9.75741C18.2989 9.61838 18.3035 9.38903 18.1454 9.24507C18.1421 9.24205 18.1388 9.23909 18.1353 9.23617L10.7212 2.71441C10.6829 2.68092 10.6376 2.65432 10.5877 2.63618Z" fill="#596882"/>
<rect x="14.7827" width="0.869565" height="9.56522" rx="0.434782" transform="rotate(90 14.7827 0)" fill="#596882"/>
</g>
<defs>
<clipPath id="clip0">
<rect width="20" height="20" fill="white" transform="translate(20) rotate(90)"/>
</clipPath>
</defs>
</svg>
