<svg width="14" height="18" viewBox="0 0 14 18" fill="none" xmlns="http://www.w3.org/2000/svg">
<path d="M4.36806 12.2558H4.37694M4.36806 2.47797H2.59028C2.11878 2.47797 1.6666 2.66527 1.3332 2.99867C0.999801 3.33207 0.8125 3.78425 0.8125 4.25575V14.9224C0.8125 15.3939 0.999801 15.8461 1.3332 16.1795C1.6666 16.5129 2.11878 16.7002 2.59028 16.7002H11.4792C11.9507 16.7002 12.4028 16.5129 12.7362 16.1795C13.0696 15.8461 13.2569 15.3939 13.2569 14.9224V4.25575C13.2569 3.78425 13.0696 3.33207 12.7362 2.99867C12.4028 2.66527 11.9507 2.47797 11.4792 2.47797H9.70139H4.36806ZM4.36806 2.47797C4.36806 2.94947 4.55536 3.40165 4.88876 3.73505C5.22215 4.06845 5.67434 4.25575 6.14583 4.25575H7.92361C8.39511 4.25575 8.84729 4.06845 9.18069 3.73505C9.51409 3.40165 9.70139 2.94947 9.70139 2.47797H4.36806ZM4.36806 2.47797C4.36806 2.00648 4.55536 1.55429 4.88876 1.22089C5.22215 0.887496 5.67434 0.700195 6.14583 0.700195H7.92361C8.39511 0.700195 8.84729 0.887496 9.18069 1.22089C9.51409 1.55429 9.70139 2.00648 9.70139 2.47797H4.36806ZM7.03472 8.7002H9.70139H7.03472ZM7.03472 12.2558H9.70139H7.03472ZM4.36806 8.7002H4.37694H4.36806Z" stroke="black" stroke-linecap="round" stroke-linejoin="round"/>
</svg>
