<svg width="17" height="18" viewBox="0 0 17 18" fill="none" xmlns="http://www.w3.org/2000/svg">
<path d="M15.5832 12.5744V6.00608C15.5829 5.79109 15.5263 5.57993 15.4191 5.3936C15.3119 5.20727 15.1577 5.05228 14.9719 4.94405L9.12523 1.54141C8.84353 1.37742 8.5234 1.29102 8.19745 1.29102C7.87149 1.29102 7.55136 1.37742 7.26966 1.54141L1.42371 4.94405C1.23796 5.05228 1.0838 5.20727 0.97656 5.3936C0.869326 5.57993 0.812762 5.79109 0.8125 6.00608V12.5744C0.812628 12.7895 0.869128 13.0008 0.976369 13.1873C1.08361 13.3738 1.23785 13.5289 1.42371 13.6372L7.27043 17.0398C7.55221 17.2036 7.87231 17.2899 8.19822 17.2899C8.52412 17.2899 8.84422 17.2036 9.126 17.0398L14.9727 13.6372C15.1584 13.5288 15.3125 13.3736 15.4196 13.1872C15.5267 13.0007 15.5831 12.7894 15.5832 12.5744Z" stroke="black" stroke-linecap="round" stroke-linejoin="round"/>
<path d="M1.00488 5.36719L8.19789 9.59837L15.3909 5.36719" stroke="black" stroke-linecap="round" stroke-linejoin="round"/>
<path d="M8.19788 17.2907V9.59766" stroke="black" stroke-linecap="round" stroke-linejoin="round"/>
</svg>
