<svg width="17" height="17" viewBox="0 0 17 17" fill="none" xmlns="http://www.w3.org/2000/svg">
<path d="M4.8125 0.224609H1.12019C0.950259 0.224609 0.8125 0.362368 0.8125 0.532302V4.22461C0.8125 4.39454 0.950259 4.5323 1.12019 4.5323H4.8125C4.98243 4.5323 5.12019 4.39454 5.12019 4.22461V0.532302C5.12019 0.362368 4.98243 0.224609 4.8125 0.224609Z" fill="black"/>
<path d="M10.6587 0.224609H6.96638C6.79645 0.224609 6.65869 0.362368 6.65869 0.532302V4.22461C6.65869 4.39454 6.79645 4.5323 6.96638 4.5323H10.6587C10.8286 4.5323 10.9664 4.39454 10.9664 4.22461V0.532302C10.9664 0.362368 10.8286 0.224609 10.6587 0.224609Z" fill="black"/>
<path d="M16.5048 0.224609H12.8125C12.6425 0.224609 12.5048 0.362368 12.5048 0.532302V4.22461C12.5048 4.39454 12.6425 4.5323 12.8125 4.5323H16.5048C16.6747 4.5323 16.8125 4.39454 16.8125 4.22461V0.532302C16.8125 0.362368 16.6747 0.224609 16.5048 0.224609Z" fill="black"/>
<path d="M4.8125 6.07031H1.12019C0.950259 6.07031 0.8125 6.20807 0.8125 6.378V10.0703C0.8125 10.2402 0.950259 10.378 1.12019 10.378H4.8125C4.98243 10.378 5.12019 10.2402 5.12019 10.0703V6.378C5.12019 6.20807 4.98243 6.07031 4.8125 6.07031Z" fill="black"/>
<path d="M10.6587 6.07031H6.96638C6.79645 6.07031 6.65869 6.20807 6.65869 6.378V10.0703C6.65869 10.2402 6.79645 10.378 6.96638 10.378H10.6587C10.8286 10.378 10.9664 10.2402 10.9664 10.0703V6.378C10.9664 6.20807 10.8286 6.07031 10.6587 6.07031Z" fill="black"/>
<path d="M16.5048 6.07031H12.8125C12.6425 6.07031 12.5048 6.20807 12.5048 6.378V10.0703C12.5048 10.2402 12.6425 10.378 12.8125 10.378H16.5048C16.6747 10.378 16.8125 10.2402 16.8125 10.0703V6.378C16.8125 6.20807 16.6747 6.07031 16.5048 6.07031Z" fill="black"/>
<path d="M4.8125 11.917H1.12019C0.950259 11.917 0.8125 12.0548 0.8125 12.2247V15.917C0.8125 16.0869 0.950259 16.2247 1.12019 16.2247H4.8125C4.98243 16.2247 5.12019 16.0869 5.12019 15.917V12.2247C5.12019 12.0548 4.98243 11.917 4.8125 11.917Z" fill="black"/>
<path d="M10.6587 11.917H6.96638C6.79645 11.917 6.65869 12.0548 6.65869 12.2247V15.917C6.65869 16.0869 6.79645 16.2247 6.96638 16.2247H10.6587C10.8286 16.2247 10.9664 16.0869 10.9664 15.917V12.2247C10.9664 12.0548 10.8286 11.917 10.6587 11.917Z" fill="black"/>
<path d="M16.5048 11.917H12.8125C12.6425 11.917 12.5048 12.0548 12.5048 12.2247V15.917C12.5048 16.0869 12.6425 16.2247 12.8125 16.2247H16.5048C16.6747 16.2247 16.8125 16.0869 16.8125 15.917V12.2247C16.8125 12.0548 16.6747 11.917 16.5048 11.917Z" fill="black"/>
</svg>
