<svg width="17" height="16" viewBox="0 0 17 16" fill="none" xmlns="http://www.w3.org/2000/svg">
<path d="M1.92976 1.28324C1.92976 1.13508 1.8709 0.992991 1.76614 0.888228C1.66137 0.783465 1.51929 0.724609 1.37113 0.724609C1.22297 0.724609 1.08088 0.783465 0.976118 0.888228C0.871355 0.992991 0.8125 1.13508 0.8125 1.28324V15.0627C0.8125 15.3711 1.06277 15.6214 1.37113 15.6214H14.9644C15.1126 15.6214 15.2547 15.5625 15.3594 15.4577C15.4642 15.353 15.523 15.2109 15.523 15.0627C15.523 14.9146 15.4642 14.7725 15.3594 14.6677C15.2547 14.563 15.1126 14.5041 14.9644 14.5041H1.92976V1.28324Z" fill="black"/>
<path d="M16.6634 5.03028C16.7621 4.92438 16.8158 4.78432 16.8132 4.63959C16.8107 4.49487 16.7521 4.35679 16.6497 4.25444C16.5474 4.15209 16.4093 4.09346 16.2645 4.09091C16.1198 4.08835 15.9798 4.14207 15.8739 4.24075L11.6134 8.50122L8.8426 5.73042C8.73786 5.62581 8.59587 5.56705 8.44784 5.56705C8.2998 5.56705 8.15782 5.62581 8.05307 5.73042L3.58405 10.1994C3.52916 10.2506 3.48514 10.3123 3.45461 10.3808C3.42408 10.4493 3.40766 10.5233 3.40634 10.5983C3.40501 10.6733 3.41881 10.7478 3.44691 10.8174C3.475 10.8869 3.51682 10.9501 3.56987 11.0032C3.62291 11.0562 3.6861 11.098 3.75566 11.1261C3.82522 11.1542 3.89973 11.168 3.97473 11.1667C4.04974 11.1654 4.12371 11.1489 4.19224 11.1184C4.26076 11.0879 4.32243 11.0439 4.37358 10.989L8.44784 6.91472L11.2186 9.68551C11.3234 9.79012 11.4654 9.84888 11.6134 9.84888C11.7614 9.84888 11.9034 9.79012 12.0082 9.68551L16.6634 5.03028Z" fill="black"/>
</svg>
