<svg width="14" height="18" viewBox="0 0 14 18" fill="none" xmlns="http://www.w3.org/2000/svg">
<path d="M13.1202 8.12635V15.6167C13.1202 16.1064 12.9257 16.5759 12.5795 16.9222C12.2332 17.2684 11.7637 17.4629 11.274 17.4629H2.65865C2.16902 17.4629 1.69945 17.2684 1.35323 16.9222C1.007 16.5759 0.8125 16.1064 0.8125 15.6167V3.30904C0.8125 2.81941 1.007 2.34984 1.35323 2.00362C1.69945 1.6574 2.16902 1.46289 2.65865 1.46289H6.45673C6.78304 1.46294 7.09597 1.59257 7.32673 1.82328L12.7598 7.25635C12.9905 7.48711 13.1201 7.80005 13.1202 8.12635Z" stroke="black" stroke-linejoin="round"/>
<path d="M6.96631 1.77051V6.38589C6.96631 6.71231 7.09598 7.02536 7.32679 7.25618C7.55761 7.48699 7.87066 7.61666 8.19708 7.61666H12.8125" stroke="black" stroke-linecap="round" stroke-linejoin="round"/>
<path d="M3.8894 10.6934H10.0433" stroke="black" stroke-linecap="round" stroke-linejoin="round"/>
<path d="M3.8894 13.7705H10.0433" stroke="black" stroke-linecap="round" stroke-linejoin="round"/>
</svg>
